<svg width="29" height="21" viewBox="0 0 29 21" fill="none" xmlns="http://www.w3.org/2000/svg">
<path d="M1.32439 1.70819C2.0912 2.18682 12.7429 9.06086 13.1402 9.30842C13.5376 9.55599 13.9419 9.67152 14.5693 9.67152C15.1967 9.67152 15.601 9.55599 15.9984 9.30842C16.3957 9.06086 27.0474 2.18682 27.8142 1.70819C28.1 1.5349 28.581 1.22132 28.6856 0.866476C28.8668 0.239312 28.6717 0 27.8979 0H14.5693H1.24073C0.466951 0 0.271763 0.247564 0.453009 0.866476C0.557574 1.22957 1.03857 1.5349 1.32439 1.70819Z" fill="white"/>
<path d="M28.4208 1.95404C27.8492 2.30063 22.7185 6.62476 19.3236 9.22418L25.0538 16.8574C25.1932 17.0225 25.256 17.2205 25.1793 17.3195C25.0956 17.4103 24.9144 17.3608 24.768 17.204L17.8946 10.3382C16.8559 11.1304 16.1239 11.6751 15.9985 11.7576C15.4617 12.0794 15.0853 12.1207 14.5694 12.1207C14.0536 12.1207 13.6771 12.0794 13.1404 11.7576C13.0079 11.6751 12.2829 11.1304 11.2442 10.3382L4.37082 17.204C4.2314 17.3691 4.04319 17.4186 3.95953 17.3195C3.87588 17.2288 3.93862 17.0225 4.07804 16.8574L9.80124 9.22418C6.40636 6.62476 1.21993 2.30063 0.648304 1.95404C0.034855 1.58269 0 2.02006 0 2.3584C0 2.69673 0 19.2753 0 19.2753C0 20.0427 0.955029 21 1.63819 21H14.5694H27.5006C28.1838 21 28.9994 20.0345 28.9994 19.2753C28.9994 19.2753 28.9994 2.68848 28.9994 2.3584C28.9994 2.01181 29.0412 1.58269 28.4208 1.95404Z" fill="white"/>
</svg>
