<svg width="22" height="21" viewBox="0 0 22 21" fill="none" xmlns="http://www.w3.org/2000/svg">
<path fill-rule="evenodd" clip-rule="evenodd" d="M11 0C17.0775 0 22 4.8176 22 10.7656C22 15.5294 18.8513 19.553 14.4788 20.9794C13.9288 21.0736 13.7225 20.7507 13.7225 20.4681C13.7225 20.2124 13.7362 19.3646 13.7362 18.463C16.5 18.9609 17.215 17.8036 17.435 17.198C17.5588 16.8885 18.095 15.9331 18.5625 15.6774C18.9475 15.4755 19.4975 14.9776 18.5763 14.9642C17.71 14.9507 17.0912 15.7447 16.885 16.0676C15.895 17.6959 14.3137 17.2384 13.6812 16.9558C13.585 16.256 13.2963 15.785 12.98 15.5159C15.4275 15.2468 17.985 14.3182 17.985 10.2004C17.985 9.02963 17.5588 8.06073 16.8575 7.30714C16.9675 7.038 17.3525 5.93453 16.7475 4.45426C16.7475 4.45426 15.8263 4.17166 13.7225 5.55773C12.8425 5.31551 11.9075 5.19439 10.9725 5.19439C10.0375 5.19439 9.1025 5.31551 8.2225 5.55773C6.11875 4.15821 5.1975 4.45426 5.1975 4.45426C4.5925 5.93453 4.9775 7.038 5.0875 7.30714C4.38625 8.06073 3.96 9.01618 3.96 10.2004C3.96 14.3317 6.53125 15.2468 8.97875 15.5159C8.58 15.8523 8.23625 16.4983 8.23625 17.5075C8.23625 18.9474 8.25 20.1047 8.25 20.4681C8.25 20.7507 8.04375 21.0871 7.49375 20.9794C3.14875 19.553 0 15.5159 0 10.7656C0 4.8176 4.9225 0 11 0Z" fill="white"/>
</svg>
