<svg width="21" height="21" viewBox="0 0 21 21" fill="none" xmlns="http://www.w3.org/2000/svg">
<g clip-path="url(#clip0_209_54)">
<path fill-rule="evenodd" clip-rule="evenodd" d="M18.6667 21H2.33333C1.04467 21 0 19.9553 0 18.6667V2.33333C0 1.04467 1.04467 0 2.33333 0H18.6667C19.9553 0 21 1.04467 21 2.33333V18.6667C21 19.9553 19.9553 21 18.6667 21ZM14.9669 18.0833H18.0832V11.6816C18.0832 8.97293 16.5477 7.66327 14.4031 7.66327C12.2574 7.66327 11.3544 9.33415 11.3544 9.33415V7.97218H8.35123V18.0833H11.3544V12.7756C11.3544 11.3534 12.0091 10.5071 13.2621 10.5071C14.4139 10.5071 14.9669 11.3203 14.9669 12.7756V18.0833ZM2.9165 4.78242C2.9165 5.81278 3.74544 6.64821 4.7684 6.64821C5.79136 6.64821 6.6198 5.81278 6.6198 4.78242C6.6198 3.75206 5.79136 2.91663 4.7684 2.91663C3.74544 2.91663 2.9165 3.75206 2.9165 4.78242ZM6.34925 18.0833H3.21766V7.97218H6.34925V18.0833Z" fill="white"/>
</g>
<defs>
<clipPath id="clip0_209_54">
<rect width="21" height="21" fill="white"/>
</clipPath>
</defs>
</svg>
