<svg width="29" height="36" viewBox="0 0 29 36" fill="none" xmlns="http://www.w3.org/2000/svg">
<g clip-path="url(#clip0_220_2)">
<path d="M28.9998 8.43857V9.29059C28.9813 9.33469 28.9691 9.38124 28.9638 9.42882C28.9435 9.92734 28.9277 10.4259 28.912 10.9266C28.8579 12.4653 28.7656 14.0039 28.7701 15.5425C28.7701 16.1317 28.5719 16.4013 28.0719 16.6755C26.0448 17.7269 24.0674 18.8327 22.0674 19.9181C20.3872 20.8246 18.7048 21.731 17.0268 22.6509C17.0033 22.6698 16.9763 22.6836 16.9474 22.6918C16.9184 22.6999 16.8882 22.7022 16.8584 22.6983C16.8286 22.6945 16.7998 22.6848 16.7738 22.6696C16.7478 22.6545 16.7251 22.6343 16.707 22.6102C15.6424 21.5527 14.5756 20.505 13.5066 19.4672L10.1349 16.1656C8.13493 14.2101 6.14619 12.2364 4.12592 10.3058C3.93899 10.1416 3.79395 9.93474 3.70303 9.70248C3.6121 9.47022 3.57793 9.21939 3.6034 8.97108C3.70025 6.71868 3.73178 4.46174 3.77908 2.2048C3.77328 2.13129 3.79004 2.05776 3.8271 1.99414C3.86415 1.93052 3.91971 1.87988 3.98628 1.84903C5.1004 1.25685 6.21151 0.660893 7.31962 0.0611572C7.38705 0.0140797 7.46998 -0.00490114 7.55102 0.00819501C7.63206 0.0212912 7.70491 0.065447 7.7543 0.131403C9.59665 1.93061 11.4412 3.72755 13.2881 5.52223L18.1304 10.231C18.2611 10.3579 18.3557 10.4236 18.5584 10.3194C21.1034 8.93709 23.6484 7.56616 26.1935 6.1839C26.2678 6.12555 26.3619 6.09902 26.4555 6.11005C26.5491 6.12108 26.6346 6.16878 26.6935 6.24282C27.3692 6.92262 28.0606 7.57976 28.7475 8.2437C28.8283 8.31294 28.9125 8.37799 28.9998 8.43857Z" fill="#AB4626"/>
<path d="M2.43696 25.923C2.54958 25.8686 2.66219 25.8233 2.75453 25.7689L7.93471 22.9658C7.95919 22.9455 7.98748 22.9304 8.0179 22.9213C8.04831 22.9123 8.08023 22.9094 8.11175 22.913C8.14327 22.9166 8.17375 22.9266 8.20138 22.9422C8.229 22.9579 8.25321 22.9791 8.27255 23.0044C8.80633 23.5414 9.34687 24.0716 9.90093 24.5906C9.97766 24.6515 10.0383 24.7305 10.0776 24.8206C10.1169 24.9107 10.1335 25.0091 10.1262 25.1072C10.0856 25.932 10.0563 26.7569 10.0293 27.5817C10.0023 28.4654 9.97976 29.3492 9.96174 30.2329C9.92345 31.9936 9.88967 33.752 9.85138 35.5127C9.85138 35.6736 9.89417 35.7393 10.0586 35.771C11.545 36.0981 13.0863 36.0764 14.5631 35.7076C16.3311 35.2702 17.9167 34.4839 19.205 33.1606C19.7913 32.6014 20.1454 31.8395 20.196 31.0283C20.2568 29.6687 20.2951 28.3204 20.3424 26.9653C20.3762 26.0317 20.4257 25.1004 20.4347 24.1668C20.4677 23.5408 20.4383 22.913 20.3469 22.2928C20.1374 21.2052 19.491 20.3282 18.7275 19.5623C17.3086 18.1483 15.8671 16.7683 14.437 15.3793C12.8859 13.8686 11.3326 12.3579 9.77705 10.8472C9.73498 10.7919 9.67327 10.7551 9.60483 10.7446C9.5364 10.734 9.46655 10.7505 9.40994 10.7906C9.10138 10.9651 8.78832 11.1282 8.4775 11.2959L2.67345 14.4049C1.91219 14.8128 1.15093 15.2184 0.394172 15.6353C0.346964 15.6598 0.30523 15.6937 0.271534 15.735C0.237838 15.7764 0.212891 15.8242 0.198226 15.8755C0.164442 16.2109 0.16219 16.5553 0.155433 16.8884C0.128406 17.9965 0.105883 19.1023 0.0788564 20.2081C0.0518294 21.2414 0.0225501 22.2724 2.75935e-05 23.3035C-0.00996225 23.4073 0.0180683 23.5113 0.0788564 23.5958C0.858136 24.3753 1.64642 25.1525 2.43696 25.923Z" fill="#AB4626"/>
<path d="M2.43696 25.923C1.64642 25.1458 0.860388 24.3754 0.0788564 23.5959C0.0180683 23.5113 -0.00996225 23.4074 2.75935e-05 23.3035C0.0225501 22.2725 0.0518294 21.2415 0.0788564 20.2082C0.105883 19.1024 0.128406 17.9966 0.155433 16.8885C0.155433 16.5508 0.155433 16.2087 0.198226 15.8756C0.212891 15.8242 0.237838 15.7764 0.271534 15.7351C0.30523 15.6938 0.346964 15.6599 0.394172 15.6354C1.15093 15.2184 1.91219 14.8128 2.67345 14.4049L8.4775 11.2937C8.78832 11.126 9.10138 10.9629 9.40994 10.7884C9.46655 10.7483 9.5364 10.7318 9.60483 10.7424C9.67327 10.7529 9.73498 10.7897 9.77705 10.8451C11.3296 12.3557 12.8829 13.8664 14.437 15.3771C15.8671 16.7684 17.3086 18.1461 18.7162 19.5578C19.4798 20.3237 20.1262 21.2007 20.3356 22.2884C20.427 22.9085 20.4565 23.5363 20.4235 24.1624C20.4235 25.0959 20.3649 26.0273 20.3311 26.9609C20.2838 28.3205 20.2455 29.6801 20.1847 31.0238C20.1341 31.8351 19.7801 32.5969 19.1937 33.1561C17.9054 34.4795 16.3198 35.2658 14.5518 35.7031C13.0751 36.0719 11.5338 36.0936 10.0473 35.7666C9.88291 35.7303 9.83561 35.6691 9.84012 35.5082C9.87841 33.7475 9.91219 31.9891 9.95048 30.2284C9.9685 29.3447 9.99102 28.461 10.018 27.5772C10.0451 26.7524 10.0744 25.9276 10.1149 25.1027C10.1223 25.0047 10.1056 24.9062 10.0663 24.8162C10.0271 24.7261 9.9664 24.6471 9.88967 24.5861C9.33561 24.0694 8.79507 23.5392 8.26129 22.9999C8.24195 22.9746 8.21774 22.9535 8.19011 22.9378C8.16249 22.9221 8.13201 22.9122 8.10049 22.9086C8.06897 22.905 8.03705 22.9078 8.00663 22.9169C7.97622 22.9259 7.94793 22.9411 7.92345 22.9614L2.74327 25.7644C2.65318 25.8324 2.54958 25.8687 2.43696 25.923Z" fill="#AB4626"/>
<path d="M3.81299 1.96021C3.96614 2.09844 4.09002 2.20494 4.20713 2.31824L7.7229 5.7535L13.304 11.21C14.5052 12.3838 15.7064 13.5584 16.9076 14.7337C16.9499 14.7889 17.0122 14.8251 17.081 14.8345C17.1497 14.8438 17.2193 14.8255 17.2747 14.7835C17.6598 14.5569 18.0517 14.3552 18.4414 14.1445L23.7319 11.2871L28.6283 8.63359C28.8963 8.48857 28.9076 8.44778 28.6869 8.23251C28.0112 7.5799 27.3355 6.94089 26.6914 6.27695C26.4909 6.07301 26.3288 6.02995 26.1058 6.1999C26.0788 6.21803 26.0472 6.22936 26.0179 6.24522L18.6936 10.2198C18.313 10.426 18.3107 10.4283 17.9999 10.1246L12.7297 4.98532C11.0742 3.36513 9.41209 1.75174 7.76344 0.129279C7.7048 0.0567121 7.61997 0.0104824 7.52752 0.000713954C7.43507 -0.00905449 7.34254 0.0184345 7.2702 0.077161C6.36929 0.57115 5.46839 1.05381 4.56749 1.54327C4.322 1.67016 4.09002 1.81292 3.81299 1.96021Z" fill="#AB4626"/>
<path d="M3.81299 1.96021C4.09002 1.80386 4.322 1.67016 4.55848 1.54327C5.45938 1.05381 6.36029 0.57115 7.26119 0.077161C7.33353 0.0184345 7.42606 -0.00905449 7.51851 0.000713955C7.61096 0.0104824 7.69579 0.0567121 7.75443 0.129279C9.41209 1.75174 11.0742 3.36513 12.7297 4.98533L17.9977 10.1292C18.3085 10.4237 18.3107 10.4237 18.6936 10.2198L26.0202 6.24522C26.0495 6.22936 26.081 6.21803 26.108 6.1999C26.3333 6.02995 26.4932 6.07301 26.6936 6.27695C27.3468 6.94089 28.0224 7.5799 28.6891 8.23251C28.9143 8.45911 28.8986 8.48857 28.6306 8.63359L23.7297 11.2871L18.4391 14.1445C18.0495 14.3553 17.6576 14.566 17.2724 14.7835C17.2165 14.825 17.1465 14.8426 17.0778 14.8324C17.009 14.8222 16.947 14.7851 16.9053 14.7291C15.7041 13.5508 14.5029 12.3763 13.3017 11.2055L7.7229 5.7535L4.20713 2.31824C4.09002 2.20494 3.96614 2.09844 3.81299 1.96021Z" fill="#FEA75B"/>
<path d="M10.135 24.8399C10.3602 24.8852 10.5629 24.9305 10.7746 24.9713C11.7656 25.1594 12.7566 25.2319 13.7431 24.9509C14.2902 24.8099 14.796 24.5396 15.2183 24.1623C15.7949 23.623 15.9098 22.9591 15.4976 22.2861C15.2729 21.9181 15.0077 21.5768 14.7071 21.2686C13.93 20.4778 13.1305 19.7164 12.3287 18.9437C11.0599 17.7065 9.79115 16.4692 8.52238 15.232C8.47901 15.1782 8.41687 15.1431 8.34865 15.1338C8.28042 15.1246 8.21126 15.1419 8.15526 15.1821C6.93004 15.8619 5.69806 16.5078 4.46608 17.1694C3.91427 17.4663 3.36247 17.7699 2.80391 18.06C2.76579 18.0765 2.72438 18.0838 2.68295 18.0814C2.64153 18.0791 2.60121 18.0671 2.56517 18.0464C1.80391 17.3145 1.05391 16.5735 0.312922 15.8325C0.293089 15.8062 0.277157 15.7772 0.265625 15.7464C0.324184 15.7101 0.375985 15.6716 0.432292 15.6421L8.10797 11.484C8.5449 11.2574 8.98635 11.0172 9.42103 10.777C9.47161 10.7403 9.53437 10.7248 9.59611 10.7336C9.65785 10.7425 9.71377 10.7751 9.75211 10.8246C10.9083 11.944 12.0584 13.0597 13.2026 14.1715L18.1327 18.9573C18.8061 19.5805 19.3877 20.2969 19.8602 21.0851C20.244 21.7122 20.4438 22.4357 20.4368 23.1721C20.4062 23.9371 20.1078 24.6667 19.5945 25.2319C18.8197 26.1383 17.8309 26.7478 16.7701 27.2554C15.8815 27.6751 14.9357 27.9592 13.9638 28.0984C13.1151 28.2395 12.2509 28.2609 11.3963 28.1618C11.0179 28.112 10.6395 28.0508 10.2701 27.9941C10.1643 27.9783 10.0877 27.9465 10.0899 27.8083C10.1057 26.8498 10.1147 25.8913 10.126 24.9328C10.1269 24.9016 10.1299 24.8706 10.135 24.8399Z" fill="#FEA75B"/>
</g>
<defs>
<clipPath id="clip0_220_2">
<rect width="29" height="36" fill="white"/>
</clipPath>
</defs>
</svg>
