<svg width="22" height="21" viewBox="0 0 22 21" fill="none" xmlns="http://www.w3.org/2000/svg">
<g clip-path="url(#clip0_510_295885)">
<path d="M12.1656 11.0001C12.1656 14.3138 9.51389 17 6.24304 17C2.9722 17 0.320312 14.3132 0.320312 11.0001C0.320312 7.68705 2.972 5 6.24304 5C9.51409 5 12.1656 7.68644 12.1656 11.0001ZM18.6628 11.0001C18.6628 14.1192 17.3369 16.6487 15.7014 16.6487C14.0659 16.6487 12.7401 14.1192 12.7401 11.0001C12.7401 7.881 14.0657 5.35147 15.7012 5.35147C17.3367 5.35147 18.6626 7.88019 18.6626 11.0001M21.3203 11.0001C21.3203 13.794 20.8541 16.0604 20.2788 16.0604C19.7035 16.0604 19.2375 13.7947 19.2375 11.0001C19.2375 8.20555 19.7037 5.93982 20.2788 5.93982C20.8539 5.93982 21.3203 8.20534 21.3203 11.0001Z" fill="white"/>
</g>
<defs>
<clipPath id="clip0_510_295885">
<rect width="21" height="21" fill="white" transform="translate(0.320312)"/>
</clipPath>
</defs>
</svg>
