<svg width="27" height="22" viewBox="0 0 27 22" fill="none" xmlns="http://www.w3.org/2000/svg">
<path d="M23.7309 5.38207C23.7469 5.60991 23.7469 5.83774 23.7469 6.06768C23.7469 13.0739 18.3149 21.1542 8.38233 21.1542V21.15C5.44821 21.1542 2.57503 20.3289 0.10498 18.7729C0.531626 18.8233 0.96041 18.8485 1.39026 18.8496C3.82182 18.8517 6.18388 18.0506 8.09683 16.5754C5.7861 16.5324 3.7598 15.053 3.05194 12.8933C3.86139 13.0466 4.69543 13.0151 5.48991 12.802C2.97067 12.3022 1.15823 10.1288 1.15823 7.60478V7.53758C1.90887 7.94811 2.74933 8.17594 3.60904 8.20114C1.23629 6.64409 0.504894 3.54469 1.93774 1.12144C4.67939 4.43398 8.72451 6.44775 13.0669 6.66089C12.6317 4.81931 13.2262 2.88953 14.6291 1.59496C16.804 -0.412514 20.2247 -0.30962 22.2692 1.82489C23.4785 1.59076 24.6376 1.15504 25.6984 0.537676C25.2953 1.76505 24.4516 2.80763 23.3246 3.47014C24.3949 3.34625 25.4407 3.06487 26.4255 2.63544C25.7005 3.70218 24.7873 4.63137 23.7309 5.38207Z" fill="white"/>
</svg>
